<svg width="20" height="15" viewBox="0 0 20 15" fill="none" xmlns="http://www.w3.org/2000/svg">
<path fill-rule="evenodd" clip-rule="evenodd" d="M19.3892 4.64472C19.8095 7.27756 19.7793 9.96267 19.3001 12.5854C19.1253 13.5423 18.325 14.2595 17.3548 14.329L15.5804 14.4559C11.8645 14.7218 8.13433 14.7218 4.4184 14.4559L2.77822 14.3386C1.729 14.2635 0.863584 13.4878 0.67452 12.4531C0.211228 9.91744 0.131913 7.32655 0.439235 4.76732L0.734428 2.30912C0.876922 1.12251 1.88359 0.229492 3.07872 0.229492H5.56125C6.63627 0.229492 7.50775 1.10097 7.50775 2.17599C7.50775 2.2115 7.53653 2.24029 7.57205 2.24029H17.011C18.16 2.24029 19.1387 3.07518 19.3198 4.20984L19.3892 4.64472ZM10.8119 5.91699C10.8119 5.46826 10.4482 5.10449 9.99944 5.10449C9.55071 5.10449 9.18694 5.46826 9.18694 5.91699V7.81283H7.29111C6.84238 7.81283 6.47861 8.17659 6.47861 8.62533C6.47861 9.07406 6.84238 9.43783 7.29111 9.43783H9.18694V11.3337C9.18694 11.7824 9.55071 12.1462 9.99944 12.1462C10.4482 12.1462 10.8119 11.7824 10.8119 11.3337V9.43783H12.7078C13.1565 9.43783 13.5203 9.07406 13.5203 8.62533C13.5203 8.17659 13.1565 7.81283 12.7078 7.81283H10.8119V5.91699Z" fill="#0B4F6C"/>
</svg>
