<svg width="80" height="72" viewBox="0 0 80 72" fill="none" xmlns="http://www.w3.org/2000/svg">
<path d="M72.991 23.8975L76.0455 20.8696L71.579 16.4419L68.4113 19.582C64.2355 16.4106 59.1846 14.3188 53.6842 13.7357V11.6707C55.619 10.5593 56.8423 8.5118 56.8423 6.26124C56.8423 2.80826 54.0096 0 50.5261 0C47.0426 0 44.2099 2.80807 44.2099 6.26124C44.2099 8.5118 45.4332 10.5593 47.368 11.6707V13.7357C41.8669 14.3187 36.8167 16.4113 32.6409 19.582L29.4732 16.4419L25.0074 20.8696L28.062 23.8975C23.6954 28.9947 21.0527 35.5863 21.0527 42.7826C21.0527 58.8926 34.2746 72 50.5265 72C66.7778 72 80.0002 58.8932 80.0002 42.7826C79.9995 35.5862 77.3563 28.9945 72.9903 23.8975H72.991ZM71.579 19.3927L73.0689 20.8695L71.579 22.3464L70.09 20.8695L71.579 19.3927ZM46.3158 6.26106C46.3158 3.95888 48.2044 2.08752 50.526 2.08752C52.8484 2.08752 54.7361 3.95963 54.7361 6.26106C54.7361 7.29827 54.3485 8.27367 53.6832 9.02329L53.6839 7.30405H47.3678V9.02184C46.7032 8.27359 46.3156 7.29823 46.3156 6.26109L46.3158 6.26106ZM49.4739 13.5652V9.39168H51.579V13.5652H49.4739ZM29.4739 19.3925L30.9637 20.8693L29.4739 22.3462L27.9848 20.8693L29.4739 19.3925ZM50.5265 69.9117C35.4361 69.9117 23.1581 57.7403 23.1581 42.7813C23.1581 27.8223 35.4363 15.6509 50.5265 15.6509C65.6168 15.6509 77.895 27.8223 77.895 42.7813C77.895 57.7412 65.6168 69.9117 50.5265 69.9117Z" fill="#008DC5"/>
<path d="M50.5269 17.7383C36.5973 17.7383 25.2637 28.9738 25.2637 42.7818C25.2637 56.5901 36.5977 67.8252 50.5269 67.8252C64.4564 67.8252 75.7901 56.5898 75.7901 42.7818C75.7908 28.9739 64.4568 17.7383 50.5269 17.7383ZM50.5269 65.7383C37.7573 65.7383 27.3689 55.4403 27.3689 42.7818C27.3689 30.1233 37.7573 19.8252 50.5269 19.8252C63.2965 19.8252 73.6848 30.1233 73.6848 42.7818C73.6856 55.4403 63.2965 65.7383 50.5269 65.7383Z" fill="#008DC5"/>
<path d="M50.5268 38.6085C48.2045 38.6085 46.3167 40.4806 46.3167 42.782C46.3167 43.8738 46.7506 44.8593 47.4452 45.6046L40.168 56.8276L41.9383 57.9558L49.2184 46.7291C49.6325 46.8645 50.0672 46.9562 50.5268 46.9562C52.8492 46.9562 54.737 45.0841 54.737 42.7827C54.7377 40.4805 52.8492 38.6084 50.5268 38.6084L50.5268 38.6085ZM50.5268 44.8697C49.366 44.8697 48.4218 43.9337 48.4218 42.783C48.4218 41.6322 49.366 40.6962 50.5268 40.6962C51.6877 40.6962 52.6319 41.6322 52.6319 42.783C52.6327 43.9337 51.6884 44.8697 50.5268 44.8697Z" fill="#008DC5"/>
<path d="M51.5797 32.3477H49.4746V38.6082H51.5797V32.3477Z" fill="#008DC5"/>
<path d="M49.4746 21.9131H51.5797V26.0866H49.4746V21.9131Z" fill="#008DC5"/>
<path d="M67.3691 41.7393H71.5793V43.826H67.3691V41.7393Z" fill="#008DC5"/>
<path d="M29.4746 41.7393H33.6848V43.826H29.4746V41.7393Z" fill="#008DC5"/>
<path d="M49.4746 59.4785H51.5797V63.6521H49.4746V59.4785Z" fill="#008DC5"/>
<path d="M6.31641 18.7822H17.8958V20.869H6.31641V18.7822Z" fill="#008DC5"/>
<path d="M0 30.2607H7.36825V32.3475H0V30.2607Z" fill="#008DC5"/>
<path d="M11.5781 30.2607H15.7883V32.3475H11.5781V30.2607Z" fill="#008DC5"/>
<path d="M4.21094 41.7393H13.6843V43.826H4.21094V41.7393Z" fill="#008DC5"/>
<path d="M1.05273 53.2168H15.7892V55.3036H1.05273V53.2168Z" fill="#008DC5"/>
<path d="M5.26367 64.6953H9.47383V66.7821H5.26367V64.6953Z" fill="#008DC5"/>
<path d="M13.6836 64.6953H25.2629V66.7821H13.6836V64.6953Z" fill="#008DC5"/>
</svg>
