<svg width="78" height="80" viewBox="0 0 78 80" fill="none" xmlns="http://www.w3.org/2000/svg">
<path d="M73.1449 39.9997L78 31.0984L69.7626 25.1855L70.2749 15.0592L60.2889 13.3055L56.3562 3.96106L46.5971 6.7143L38.9996 0L31.4022 6.7143L21.6431 3.96106L17.7103 13.3055L7.72434 15.0592L8.2366 25.1855L0 31.0984L4.85512 39.9997L0 48.901L8.2366 54.8132L7.72434 64.9394L17.7103 66.6931L21.6431 76.0389L31.4022 73.2857L38.9996 80L46.5971 73.2857L56.3562 76.0389L60.2889 66.6931L70.2749 64.9394L69.7626 54.8132L78 48.901L73.1449 39.9997ZM68.0269 63.1466L58.7583 64.7748L55.1094 73.45L46.0519 70.895L38.9998 77.1271L31.9476 70.895L22.8902 73.45L19.2413 64.7748L9.97268 63.1466L10.4474 53.748L2.80186 48.2602L7.30857 39.9988L2.80186 31.7373L10.4474 26.2495L9.97268 16.8509L19.2413 15.2227L22.8902 6.54901L31.9476 9.10402L38.9998 2.87193L46.0519 9.10402L55.1094 6.54901L58.7583 15.2227L68.0269 16.8509L67.5507 26.2495L75.1962 31.7373L70.6895 39.9988L75.1962 48.2602L67.5507 53.748L68.0269 63.1466Z" fill="#008DC5"/>
<path d="M68.2422 39.9994L72.3995 32.3779L65.3451 27.3143L65.783 18.6428L57.2324 17.1407L53.8651 9.13843L45.5068 11.4952L39.0008 5.74609L32.4947 11.4952L24.1379 9.13843L20.7707 17.1407L12.2185 18.6428L12.6564 27.3143L5.60352 32.3779L9.76085 39.9994L5.60352 47.6211L12.6564 52.6838L12.2185 61.3553L20.7707 62.8574L24.1379 70.8605L32.4939 68.5037L39 74.2528L45.5068 68.5037L53.8636 70.8605L57.2308 62.8574L65.783 61.3553L65.3451 52.6838L72.3995 47.6211L68.2422 39.9994ZM63.5357 59.5644L55.7025 60.9395L52.6177 68.272L44.9632 66.1134L39.0024 71.3805L33.0417 66.1134L25.3879 68.2712L22.3031 60.9388L14.4699 59.5636L14.8717 51.62L8.41068 46.9816L12.2196 39.9993L8.41068 33.0169L14.8717 28.3785L14.4699 20.4349L22.3046 19.0598L25.3887 11.7289L33.0446 13.8888L39.0045 8.62166L44.9645 13.8888L52.6204 11.7302L55.7044 19.0611L63.5376 20.4362L63.1358 28.3799L69.5975 33.0183L65.7885 40.0006L69.5975 46.9829L63.1358 51.6213L63.5357 59.5644Z" fill="#008DC5"/>
<path d="M38.9143 34.4205C38.9143 31.4523 36.4988 29.0371 33.5304 29.0371C30.5619 29.0371 28.1465 31.4523 28.1465 34.4205C28.1465 37.3887 30.5619 39.804 33.5304 39.804C36.4988 39.804 38.9143 37.3887 38.9143 34.4205ZM30.2999 34.4205C30.2999 32.6398 31.7495 31.1903 33.5304 31.1903C35.3113 31.1903 36.7609 32.6398 36.7609 34.4205C36.7609 36.2013 35.3113 37.6508 33.5304 37.6508C31.7495 37.6508 30.2999 36.2013 30.2999 34.4205Z" fill="#008DC5"/>
<path d="M46.452 41.957C43.4836 41.957 41.0681 44.3723 41.0681 47.3405C41.0681 50.3087 43.4836 52.7239 46.452 52.7239C49.4205 52.7239 51.8359 50.3087 51.8359 47.3405C51.8359 44.3723 49.421 41.957 46.452 41.957ZM46.452 50.5707C44.6712 50.5707 43.2215 49.1212 43.2215 47.3405C43.2215 45.5597 44.6711 44.1102 46.452 44.1102C48.2329 44.1102 49.6825 45.5597 49.6825 47.3405C49.6825 49.1212 48.2329 50.5707 46.452 50.5707Z" fill="#008DC5"/>
<path d="M31.5645 52.1241L46.6398 29.5117L48.4319 30.7059L33.3566 53.3182L31.5645 52.1241Z" fill="#008DC5"/>
</svg>
