<svg width="80" height="76" viewBox="0 0 80 76" fill="none" xmlns="http://www.w3.org/2000/svg">
<path d="M0 19.8625V41.1951C0 44.2903 2.49246 46.8089 5.55555 46.8089H44.4444V44.5636H12.2222V42.3182H44.4444V40.0729H9.99998V44.5636H5.55594C3.71831 44.5636 2.22242 43.052 2.22242 41.1951V37.8266H44.4446V35.5812L2.22242 35.582V19.8637C2.22242 18.0067 3.71827 16.4951 5.55594 16.4951H44.4448V14.2498L5.55594 14.249C2.49285 14.249 0.000396607 16.7676 0.000396607 19.8629L0 19.8625Z" fill="#008DC5"/>
<path d="M74.4454 14.248H73.334V16.4934H74.4454C76.283 16.4934 77.7789 18.0049 77.7789 19.8619V34.4581H80.0009V19.8619C80.0009 16.7667 77.5085 14.248 74.4454 14.248Z" fill="#008DC5"/>
<path d="M69.3842 31.8295C68.8153 30.6805 67.6729 29.9678 66.4034 29.9678H64.4433V22.9912C68.3945 20.9424 71.1104 16.7915 71.1104 12.0039C71.1104 7.09722 68.2326 2.65587 63.7769 0.688418L62.2214 0V10.8808H55.5543V0L53.9988 0.688418C49.5438 2.65499 46.6661 7.09562 46.6661 12.0023C46.6661 16.7899 49.3819 20.9408 53.3331 22.9896V30.2888C52.7433 30.559 52.2264 30.9835 51.8706 31.5646C51.2599 32.5647 51.2048 33.7897 51.7249 34.8423C51.8605 35.1149 52.0295 35.3608 52.2225 35.5808H49.9989C48.1612 35.5808 46.6653 37.0924 46.6653 38.9493C46.6653 39.5524 46.8351 40.11 47.1118 40.6011C46.1794 41.1987 45.5547 42.2442 45.5547 43.4401C45.5547 44.6125 46.1515 45.6431 47.0521 46.247C46.1515 46.8508 45.5547 47.8831 45.5547 49.0539C45.5547 50.607 46.6057 51.9032 48.0217 52.2923C47.8667 52.68 47.7768 53.1021 47.7768 53.5446C47.7768 55.4015 49.2727 56.9131 51.1104 56.9131H53.3324V70.3862C53.3324 73.4814 55.8248 76 58.8879 76C61.951 76 64.4435 73.4814 64.4435 70.3862V56.9131H68.1978C69.6503 56.9131 71.0236 56.3508 72.0653 55.3288L72.7411 54.6678H75.5546V52.4224H71.8397L70.5175 53.7178C69.8928 54.3295 69.0689 54.6678 68.1978 54.6678H59.7947C59.9195 54.3154 59.9993 53.9402 59.9993 53.5447C59.9993 52.6793 59.6645 51.8961 59.1312 51.2994C59.6645 50.7018 59.9993 49.9194 59.9993 49.054C59.9993 47.8816 59.4025 46.851 58.5019 46.2471C59.4033 45.6433 59.9993 44.6126 59.9993 43.4402C59.9993 42.2443 59.3746 41.1979 58.4414 40.6004C58.7181 40.1109 58.8879 39.5517 58.8879 38.9487C58.8879 38.0832 58.553 37.3 58.0198 36.7033H63.3327V34.458H54.7063C54.2831 34.458 53.9018 34.2199 53.7127 33.8369C53.4616 33.3318 53.6623 32.9049 53.7608 32.7444C53.86 32.5846 54.1475 32.2118 54.7063 32.2118H66.4041C66.8273 32.2118 67.2086 32.4499 67.3977 32.8329L69.3136 36.7034H75.5543V34.4581H70.6855L69.3842 31.8295ZM48.8882 12.0024C48.8882 8.59395 50.5871 5.45802 53.3322 3.60425V13.1253H64.4433V3.60425C67.1886 5.45804 68.8874 8.59395 68.8874 12.0024C68.8874 17.5739 64.4007 22.1069 58.8878 22.1069C53.3749 22.1069 48.8882 17.5739 48.8882 12.0024ZM58.8878 24.3532C60.0441 24.3532 61.1602 24.1794 62.2213 23.8739V29.9671H55.5543V23.8739C56.6153 24.1801 57.7314 24.3532 58.8878 24.3532ZM49.9987 37.8262H55.5543C56.1665 37.8262 56.6657 38.3306 56.6657 38.9493C56.6657 39.5681 56.1666 40.0724 55.5543 40.0724H49.9987C49.3864 40.0724 48.8873 39.5681 48.8873 38.9493C48.8881 38.3298 49.3864 37.8262 49.9987 37.8262ZM56.6658 42.3169C57.278 42.3169 57.7772 42.8213 57.7772 43.44C57.7772 44.0587 57.2781 44.5631 56.6658 44.5631H48.8882C48.2759 44.5631 47.7768 44.0587 47.7768 43.44C47.7768 42.8213 48.2759 42.3169 48.8882 42.3169H56.6658ZM48.8882 47.9308H56.6658C57.278 47.9308 57.7772 48.4351 57.7772 49.0539C57.7772 49.6726 57.2781 50.1769 56.6658 50.1769H48.8882C48.2759 50.1769 47.7768 49.6726 47.7768 49.0539C47.7768 48.4351 48.2759 47.9308 48.8882 47.9308ZM62.2213 70.3861C62.2213 72.2431 60.7255 73.7546 58.8878 73.7546C57.0501 73.7546 55.5543 72.2431 55.5543 70.3861V56.9131H62.2213V70.3861ZM51.1102 54.6678C50.4979 54.6678 49.9988 54.1634 49.9988 53.5447C49.9988 52.926 50.4979 52.4216 51.1102 52.4216H56.6658C57.278 52.4216 57.7772 52.926 57.7772 53.5447C57.7772 54.1634 57.2781 54.6678 56.6658 54.6678H51.1102Z" fill="#008DC5"/>
<path d="M5.55469 28.8447H14.4438V31.0901H5.55469V28.8447Z" fill="#008DC5"/>
<path d="M16.666 28.8447H18.888V31.0901H16.666V28.8447Z" fill="#008DC5"/>
<path d="M13.3335 51.2988H11.1115C11.1115 52.1924 10.7759 52.5879 10.2683 53.1871C9.65363 53.9107 8.88867 54.8122 8.88867 56.5367C8.88867 58.2621 9.65287 59.1628 10.2675 59.8872C10.7751 60.4863 11.1107 60.8818 11.1107 61.7762C11.1107 62.6714 10.7751 63.0677 10.2675 63.6661C9.65363 64.3905 8.88867 65.2927 8.88867 67.0173H11.1107C11.1107 66.1222 11.4463 65.7259 11.9539 65.1275C12.5686 64.4038 13.3335 63.5032 13.3335 61.7762C13.3335 60.0509 12.5693 59.1502 11.9547 58.4258C11.4463 57.8274 11.1107 57.4312 11.1107 56.5367C11.1107 55.6416 11.4463 55.2468 11.9539 54.6485C12.5686 53.9248 13.3335 53.0242 13.3335 51.2988Z" fill="#008DC5"/>
<path d="M26.6675 51.2988H24.4455C24.4455 52.1924 24.1099 52.5879 23.6022 53.1871C22.9876 53.9107 22.2227 54.8122 22.2227 56.5367C22.2227 58.2621 22.9869 59.1628 23.6015 59.8872C24.1099 60.4863 24.4455 60.8818 24.4455 61.7762C24.4455 62.6714 24.1099 63.0677 23.6022 63.6661C22.9876 64.3905 22.2227 65.2927 22.2227 67.0173H24.4447C24.4447 66.1222 24.7803 65.7259 25.2879 65.1275C25.9026 64.4038 26.6675 63.5032 26.6675 61.7762C26.6675 60.0509 25.9033 59.1502 25.2887 58.4258C24.781 57.8274 24.4455 57.4312 24.4455 56.5367C24.4455 55.6416 24.781 55.2468 25.2887 54.6485C25.9026 53.9248 26.6675 53.0242 26.6675 51.2988Z" fill="#008DC5"/>
<path d="M40.0007 51.2988H37.7787C37.7787 52.1924 37.4431 52.5879 36.9354 53.1871C36.3208 53.9107 35.5566 54.8122 35.5566 56.5367C35.5566 58.2621 36.3208 59.1628 36.9354 59.8872C37.4431 60.4863 37.7787 60.8818 37.7787 61.7762C37.7787 62.6714 37.4431 63.0677 36.9354 63.6661C36.3208 64.3905 35.5566 65.2927 35.5566 67.0173H37.7787C37.7787 66.1222 38.1143 65.7259 38.6219 65.1275C39.2365 64.4038 40.0007 63.5032 40.0007 61.7762C40.0007 60.0509 39.2365 59.1502 38.6219 58.4258C38.1143 57.8274 37.7787 57.4312 37.7787 56.5367C37.7787 55.6416 38.1143 55.2468 38.6219 54.6485C39.2365 53.9248 40.0007 53.0242 40.0007 51.2988Z" fill="#008DC5"/>
</svg>
