<svg width="64" height="79" viewBox="0 0 64 79" fill="none" xmlns="http://www.w3.org/2000/svg">
<path d="M63.546 18.994C63.334 17.0437 62.0049 15.3798 60.159 14.7569C57.717 13.9334 52.831 12.1569 47.5491 9.50767C40.5428 5.99559 36.0218 2.49828 33.9514 0.7253C32.821 -0.241064 31.1794 -0.242469 30.049 0.7253C27.9784 2.49684 23.4583 5.99559 16.4513 9.50695C11.1685 12.1547 6.28408 13.9325 3.84141 14.7562C1.99547 15.379 0.666466 17.0416 0.454372 18.9933C-0.290562 25.8789 -1.14503 43.3033 6.98956 56.3502C18.3301 74.5394 31.2204 77.8529 31.7614 77.9845L31.9987 78.0422L32.236 77.9845C32.7788 77.8521 45.668 74.5385 57.0097 56.3502C65.1451 43.304 64.2906 25.8798 63.5456 18.9933L63.546 18.994ZM55.3026 55.2806C45.2574 71.3927 33.7822 75.414 31.9974 75.9564C30.2119 75.4193 18.7732 71.4434 8.69584 55.2806C0.895457 42.768 1.73233 25.8877 2.45543 19.212C2.58251 18.0409 3.3787 17.0428 4.48452 16.6691C7.52753 15.6422 12.2303 13.8792 17.3521 11.3124C24.5502 7.70514 29.215 4.0918 31.3565 2.26044C31.5397 2.10419 31.77 2.02536 32.001 2.02536C32.2313 2.02536 32.4609 2.10419 32.6434 2.25833C34.7841 4.09041 39.4496 7.70321 46.6477 11.311C51.7703 13.8793 56.4723 15.6409 59.5153 16.6677C60.6219 17.0408 61.4181 18.0388 61.5444 19.2106C62.2662 25.8885 63.1038 42.7693 55.3033 55.281L55.3026 55.2806Z" fill="#008DC5"/>
<path d="M58.5455 19.5363L57.9354 19.3251C54.9417 18.294 50.3196 16.5365 45.298 14.019C39.4248 11.0748 35.1589 8.10544 32.6164 6.13246L32.0007 5.65527L31.3849 6.13246C28.8412 8.10526 24.578 11.0748 18.7033 14.019C13.6839 16.5345 9.0606 18.2941 6.06594 19.3266L5.45581 19.5377L5.39262 20.1817C4.77546 26.4324 4.10917 42.2106 11.2588 53.6755C19.416 66.7597 28.2247 71.2875 31.6342 72.6269L32.0014 72.7712L32.3686 72.6269C35.7781 71.2883 44.5861 66.7599 52.744 53.6755C59.8916 42.2101 59.2273 26.4322 58.6102 20.1799L58.5455 19.5363ZM51.0372 52.6067C43.479 64.728 35.4559 69.1629 32.0009 70.6001C28.5465 69.1621 20.5236 64.7272 12.9646 52.6067C6.37457 42.0351 6.76209 27.4462 7.33511 21.021C10.3851 19.9462 14.8175 18.2233 19.6038 15.8246C25.1729 13.0325 29.3379 10.2123 32.0004 8.20074C34.6634 10.213 38.8291 13.0332 44.3983 15.826C49.1868 18.2253 53.6171 19.9491 56.6663 21.0217C57.2386 27.4462 57.6261 42.0362 51.0362 52.6074L51.0372 52.6067Z" fill="#008DC5"/>
<path d="M46.7696 49.9308C43.3454 55.4227 39.4474 59.8006 35.1855 62.9418L36.377 64.5677C40.8459 61.2753 44.9169 56.7109 48.4757 51.0006C50.4009 47.9143 51.841 44.1678 52.7545 39.8682L50.7843 39.4473C49.9214 43.5168 48.5699 47.043 46.7696 49.9309L46.7696 49.9308Z" fill="#008DC5"/>
<path d="M51.2852 36.6807L53.2749 36.9847C53.6786 34.3256 53.9012 31.4703 53.9363 28.4978L51.9234 28.4746C51.889 31.3526 51.6748 34.1137 51.2852 36.6806L51.2852 36.6807Z" fill="#008DC5"/>
<path d="M38.2892 31.9414L32.0355 39.1065L28.7615 35.0032L27.1895 36.2645L31.9673 42.2506L39.8049 33.2719L38.2892 31.9414Z" fill="#008DC5"/>
</svg>
