<svg width="25" height="24" viewBox="0 0 25 24" fill="none" xmlns="http://www.w3.org/2000/svg">
<path fill-rule="evenodd" clip-rule="evenodd" d="M0.833374 11.9999C0.833374 5.5566 6.05672 0.333252 12.5 0.333252C18.9434 0.333252 24.1667 5.5566 24.1667 11.9999C24.1667 18.4432 18.9434 23.6666 12.5 23.6666C6.05672 23.6666 0.833374 18.4432 0.833374 11.9999ZM13.8334 6.66659C13.8334 7.40297 13.2364 7.99992 12.5 7.99992C11.7637 7.99992 11.1667 7.40297 11.1667 6.66659C11.1667 5.93021 11.7637 5.33325 12.5 5.33325C13.2364 5.33325 13.8334 5.93021 13.8334 6.66659ZM12.5 10.3333C13.0523 10.3333 13.5 10.781 13.5 11.3333V17.9999C13.5 18.5522 13.0523 18.9999 12.5 18.9999C11.9478 18.9999 11.5 18.5522 11.5 17.9999V11.3333C11.5 10.781 11.9478 10.3333 12.5 10.3333Z" fill="#0B4F6C"/>
</svg>
