<svg width="169" height="37" viewBox="0 0 169 37" fill="none" xmlns="http://www.w3.org/2000/svg">
<path fill-rule="evenodd" clip-rule="evenodd" d="M19.7082 0C31.947 0 38.9305 4.77328 38.9305 17.579C38.9746 19.7914 38.5815 21.9901 37.7748 24.0423C36.9682 26.0945 35.7648 27.9577 34.2373 29.5194H38.0593C38.3561 29.5135 38.651 29.5693 38.9264 29.6831C39.2018 29.7971 39.4518 29.9668 39.6618 30.1822C39.8717 30.3976 40.037 30.6544 40.1481 30.9369C40.2591 31.2195 40.3133 31.5222 40.3075 31.8267V33.8313C40.3133 34.1359 40.2591 34.4386 40.1481 34.7211C40.037 35.0038 39.8717 35.2605 39.6618 35.476C39.4518 35.6913 39.2018 35.8611 38.9264 35.975C38.651 36.0888 38.3561 36.1445 38.0593 36.1387H19.7082C7.48346 36.1387 0.5 30.875 0.5 18.0693C0.5 5.26362 7.52561 0 19.7082 0ZM9.49288 18.0693C9.49288 25.3518 12.3031 29.5194 19.7082 29.5194C27.1132 29.5194 29.9376 24.8471 29.9376 17.579C29.9376 10.3109 27.043 6.63353 19.7082 6.63353C12.3734 6.63353 9.49288 10.8012 9.49288 18.0693ZM63.8849 9.04181C64.5093 9.03662 65.1183 9.24511 65.6139 9.63407C66.1109 10.0232 66.4665 10.5708 66.6261 11.1905L70.49 24.4L74.396 11.1905C74.6438 10.5278 75.0904 9.96297 75.6714 9.57695C76.2524 9.19092 76.937 9.00358 77.6272 9.04181H82.082C83.2062 9.04181 83.4876 9.95037 83.0522 11.1905L75.8156 33.7303C75.5888 34.3683 75.1758 34.9188 74.6326 35.3061C74.088 35.6936 73.4412 35.8987 72.7804 35.8934H69.4079C68.7485 35.8885 68.1059 35.6793 67.5641 35.2932C67.0223 34.9074 66.6079 34.3626 66.3727 33.7303L61.7779 19.122L57.1829 33.7303C56.9498 34.3637 56.5349 34.9096 55.9929 35.2958C55.451 35.6821 54.8077 35.8904 54.1479 35.8934H50.7756C50.1149 35.8945 49.4698 35.6877 48.9272 35.3009C48.3844 34.9142 47.9703 34.3661 47.7405 33.7303L40.5041 11.1905C40.1105 9.95037 40.3635 9.04181 41.4876 9.04181H45.9419C46.6312 9.00218 47.3148 9.18924 47.8935 9.57555C48.4722 9.96199 48.9157 10.5277 49.1597 11.1905L53.08 24.4L56.9441 11.1905C57.1033 10.5708 57.4592 10.0232 57.9559 9.63407C58.4515 9.24511 59.0591 9.03662 59.6835 9.04181H63.8849ZM99.253 30.8174C95.249 30.8174 93.478 29.0725 93.1406 25.049L111.196 24.9625C111.569 24.9625 111.927 24.8105 112.19 24.5402C112.454 24.2697 112.602 23.903 112.602 23.5204V22.0784C112.602 13.2528 107.318 8.4795 98.6622 8.4795C90.0074 8.4795 84.7238 13.3537 84.7238 22.4388C84.7238 31.524 89.9654 36.3406 98.6622 36.3406C106.49 36.3406 111.731 34.5236 111.731 29.3032C111.731 29.1076 111.692 28.914 111.618 28.7342C111.542 28.5543 111.433 28.392 111.294 28.2572C111.157 28.1222 110.993 28.0176 110.814 27.9494C110.636 27.8814 110.446 27.8513 110.256 27.8611H106.686C106.162 27.8441 105.643 27.9526 105.167 28.1779C104.691 28.4032 104.273 28.7391 103.946 29.159C103.32 29.7562 102.579 30.2122 101.77 30.4978C100.962 30.7835 100.104 30.8923 99.253 30.8174ZM104.241 19.8863H93.1406H93.0846C93.2806 16.1081 95.0936 14.1181 98.7196 14.1181C102.344 14.1181 104.101 16.1081 104.241 19.8863ZM136.235 20.3335C136.235 16.1658 134.368 14.4642 131.684 14.4642C129.28 14.4642 127.032 16.1658 125.276 17.9684V34.4515C125.286 34.6468 125.257 34.8421 125.189 35.0255C125.124 35.2088 125.021 35.3764 124.89 35.5181C124.758 35.6598 124.6 35.7725 124.425 35.8494C124.25 35.9264 124.061 35.9659 123.871 35.9656H118.531C118.341 35.9659 118.152 35.9264 117.977 35.8494C117.802 35.7725 117.643 35.6598 117.512 35.5181C117.38 35.3764 117.278 35.2088 117.212 35.0255C117.146 34.8421 117.117 34.6468 117.127 34.4515V10.5417C117.127 10.1593 117.274 9.79243 117.537 9.52192C117.802 9.25155 118.159 9.09963 118.531 9.09963H123.871C124.243 9.09963 124.601 9.25155 124.865 9.52192C125.128 9.79243 125.276 10.1593 125.276 10.5417V12.0992C127.511 9.84298 130.502 8.55259 133.637 8.49392C139.987 8.49392 144.498 11.955 144.498 20.2901V34.4515C144.508 34.6531 144.477 34.8546 144.407 35.0429C144.336 35.2314 144.228 35.4025 144.088 35.5451C143.949 35.688 143.783 35.7991 143.599 35.8715C143.416 35.9439 143.218 35.976 143.022 35.9656H137.697C137.507 35.9659 137.318 35.9264 137.143 35.8494C136.968 35.7725 136.809 35.6598 136.678 35.5181C136.546 35.3764 136.444 35.2088 136.378 35.0255C136.312 34.8421 136.283 34.6468 136.293 34.4515L136.235 20.3335ZM150.371 25.3517C150.371 32.8794 153.786 36.3981 160.643 36.3981C162.778 36.4363 164.911 36.2916 167.023 35.9655C167.402 35.93 167.758 35.7591 168.026 35.4824C168.297 35.2057 168.463 34.8409 168.498 34.4513V31.7114C168.508 31.5097 168.477 31.3083 168.406 31.1198C168.336 30.9315 168.227 30.7604 168.088 30.6176C167.949 30.4749 167.783 30.3637 167.598 30.2913C167.415 30.2188 167.219 30.1867 167.023 30.1971H166.152C165.632 30.1971 165.149 30.2667 164.647 30.3391C164.099 30.4178 163.53 30.4999 162.863 30.4999C160.361 30.4999 158.648 28.6974 158.648 25.2796V16.2955H165.308C165.681 16.2955 166.038 16.1436 166.302 15.873C166.565 15.6027 166.713 15.2358 166.713 14.8533V11.9693C166.723 11.7738 166.694 11.5785 166.626 11.3952C166.561 11.2118 166.458 11.0442 166.327 10.9026C166.197 10.7609 166.038 10.6482 165.862 10.5712C165.687 10.4943 165.498 10.4547 165.308 10.455H158.648V2.27834C158.648 1.89596 158.499 1.52911 158.236 1.25867C157.973 0.988232 157.615 0.836301 157.242 0.836301H151.777C151.404 0.836301 151.047 0.988232 150.783 1.25867C150.519 1.52911 150.371 1.89596 150.371 2.27834V25.3517Z" fill="#0B4F6C"/>
</svg>
