<svg width="45" height="45" viewBox="0 0 45 45" fill="none" xmlns="http://www.w3.org/2000/svg">
<path d="M34.334 8.99956H36.334V10.9996C36.334 11.53 36.5447 12.0387 36.9198 12.4138C37.2949 12.7888 37.8036 12.9996 38.334 12.9996C38.8644 12.9996 39.3731 12.7888 39.7482 12.4138C40.1233 12.0387 40.334 11.53 40.334 10.9996V8.99956H42.334C42.8644 8.99956 43.3731 8.78884 43.7482 8.41377C44.1233 8.0387 44.334 7.52999 44.334 6.99956C44.334 6.46912 44.1233 5.96042 43.7482 5.58534C43.3731 5.21027 42.8644 4.99956 42.334 4.99956H40.334V2.99956C40.334 2.46912 40.1233 1.96042 39.7482 1.58534C39.3731 1.21027 38.8644 0.999557 38.334 0.999557C37.8036 0.999557 37.2949 1.21027 36.9198 1.58534C36.5447 1.96042 36.334 2.46912 36.334 2.99956V4.99956H34.334C33.8036 4.99956 33.2949 5.21027 32.9198 5.58534C32.5447 5.96042 32.334 6.46912 32.334 6.99956C32.334 7.52999 32.5447 8.0387 32.9198 8.41377C33.2949 8.78884 33.8036 8.99956 34.334 8.99956ZM23.334 10.9996H21.334C19.7427 10.9996 18.2166 11.6317 17.0914 12.7569C15.9661 13.8821 15.334 15.4083 15.334 16.9996V28.9996C15.334 30.5909 15.9661 32.117 17.0914 33.2422C18.2166 34.3674 19.7427 34.9996 21.334 34.9996H23.334C24.9253 34.9996 26.4514 34.3674 27.5766 33.2422C28.7019 32.117 29.334 30.5909 29.334 28.9996V16.9996C29.334 15.4083 28.7019 13.8821 27.5766 12.7569C26.4514 11.6317 24.9253 10.9996 23.334 10.9996V10.9996ZM25.334 28.9996C25.334 29.53 25.1233 30.0387 24.7482 30.4138C24.3731 30.7888 23.8644 30.9996 23.334 30.9996H21.334C20.8036 30.9996 20.2949 30.7888 19.9198 30.4138C19.5447 30.0387 19.334 29.53 19.334 28.9996V16.9996C19.334 16.4691 19.5447 15.9604 19.9198 15.5853C20.2949 15.2103 20.8036 14.9996 21.334 14.9996H23.334C23.8644 14.9996 24.3731 15.2103 24.7482 15.5853C25.1233 15.9604 25.334 16.4691 25.334 16.9996V28.9996ZM41.534 16.9996C41.2766 17.052 41.032 17.1547 40.8143 17.3017C40.5966 17.4488 40.41 17.6372 40.2651 17.8564C40.1202 18.0755 40.0199 18.3211 39.97 18.579C39.9201 18.8369 39.9214 19.1022 39.974 19.3596C40.7549 23.152 40.2921 27.0951 38.6542 30.6036C37.0164 34.1121 34.2909 36.999 30.8823 38.8357C27.4736 40.6724 23.5636 41.361 19.7326 40.7993C15.9016 40.2376 12.3538 38.4555 9.61593 35.7176C6.87803 32.9797 5.09596 29.432 4.53426 25.6009C3.97256 21.7699 4.66116 17.8599 6.49786 14.4513C8.33455 11.0427 11.2214 8.31715 14.7299 6.67933C18.2385 5.0415 22.1816 4.57868 25.974 5.35956C26.5044 5.46564 27.0553 5.35667 27.5054 5.05661C27.9555 4.75656 28.2679 4.28999 28.374 3.75956C28.4801 3.22912 28.3711 2.67827 28.0711 2.22819C27.771 1.7781 27.3044 1.46564 26.774 1.35956C25.3104 1.08686 23.8224 0.966218 22.334 0.999557C17.9828 0.999557 13.7293 2.28983 10.1114 4.70723C6.49357 7.12462 3.67377 10.5605 2.00864 14.5805C0.343517 18.6005 -0.0921568 23.024 0.756718 27.2915C1.60559 31.5591 3.70089 35.4792 6.77765 38.5559C9.8544 41.6327 13.7744 43.728 18.042 44.5768C22.3096 45.4257 26.7331 44.99 30.753 43.3249C34.773 41.6598 38.2089 38.84 40.6263 35.2221C43.0437 31.6042 44.334 27.3507 44.334 22.9996C44.3382 21.5217 44.1908 20.0473 43.894 18.5996C43.8461 18.3385 43.7467 18.0897 43.6017 17.8675C43.4566 17.6452 43.2688 17.4541 43.0492 17.3052C42.8295 17.1563 42.5824 17.0526 42.3223 17.0001C42.0622 16.9476 41.7942 16.9474 41.534 16.9996Z" fill="#B80C09"/>
</svg>
