<svg width="22" height="28" viewBox="0 0 22 28" fill="none" xmlns="http://www.w3.org/2000/svg">
<path d="M10.0533 17.5466C9.80699 17.7949 9.66813 18.1301 9.66665 18.4799C9.667 18.6587 9.70327 18.8355 9.77332 18.9999C9.89368 19.2825 10.1079 19.5148 10.3797 19.6577C10.6516 19.8005 10.9644 19.8452 11.2654 19.784C11.5664 19.7229 11.837 19.5597 12.0316 19.3221C12.2261 19.0845 12.3327 18.787 12.3333 18.4799C12.3318 18.1301 12.193 17.7949 11.9467 17.5466C11.8227 17.4216 11.6752 17.3224 11.5128 17.2547C11.3503 17.1871 11.176 17.1522 11 17.1522C10.824 17.1522 10.6497 17.1871 10.4872 17.2547C10.3247 17.3224 10.1773 17.4216 10.0533 17.5466ZM21.1733 2.87994C21.0184 2.75463 20.8374 2.66563 20.6436 2.61949C20.4498 2.57334 20.2481 2.57121 20.0533 2.61327C18.6286 2.91186 17.1578 2.91566 15.7315 2.62445C14.3052 2.33323 12.9536 1.75315 11.76 0.919936C11.5368 0.7651 11.2716 0.682129 11 0.682129C10.7283 0.682129 10.4632 0.7651 10.24 0.919936C9.04533 1.75087 7.69328 2.32857 6.26704 2.61749C4.84079 2.90641 3.37051 2.90043 1.94665 2.59994C1.75191 2.55788 1.55021 2.56001 1.35639 2.60615C1.16257 2.6523 0.981555 2.7413 0.826654 2.8666C0.67196 2.99209 0.547349 3.15065 0.461977 3.33062C0.376606 3.5106 0.332643 3.70741 0.333321 3.9066V13.8399C0.332135 15.7516 0.787685 17.6359 1.66203 19.3359C2.53638 21.0359 3.80423 22.5024 5.35999 23.6133L10.2267 27.0799C10.4525 27.2407 10.7228 27.3271 11 27.3271C11.2772 27.3271 11.5475 27.2407 11.7733 27.0799L16.64 23.6133C18.1957 22.5024 19.4636 21.0359 20.3379 19.3359C21.2123 17.6359 21.6678 15.7516 21.6667 13.8399V3.9066C21.6673 3.70741 21.6234 3.5106 21.538 3.33062C21.4526 3.15065 21.328 2.99209 21.1733 2.8666V2.87994ZM19 13.8399C19.001 15.3263 18.647 16.7914 17.9675 18.1133C17.288 19.4352 16.3026 20.5757 15.0933 21.4399L11 24.3599L6.90665 21.4399C5.69737 20.5757 4.71197 19.4352 4.03245 18.1133C3.35294 16.7914 2.99896 15.3263 2.99999 13.8399V5.43994C5.79522 5.67918 8.59471 5.03063 11 3.5866C13.4053 5.03063 16.2047 5.67918 19 5.43994V13.8399ZM11 7.81327C10.2974 7.81282 9.6071 7.99743 8.99853 8.34853C8.38997 8.69962 7.88461 9.20482 7.53332 9.81327C7.37392 10.118 7.33841 10.4725 7.43423 10.8028C7.53005 11.1331 7.74977 11.4136 8.04751 11.5857C8.34524 11.7578 8.69796 11.8082 9.03198 11.7264C9.366 11.6445 9.65549 11.4368 9.83999 11.1466C9.9569 10.9441 10.125 10.7759 10.3274 10.6589C10.5299 10.5419 10.7595 10.4802 10.9934 10.4799C11.2272 10.4797 11.457 10.541 11.6596 10.6576C11.8623 10.7742 12.0307 10.9421 12.1481 11.1443C12.2654 11.3466 12.3274 11.5761 12.328 11.81C12.3286 12.0438 12.2677 12.2737 12.1514 12.4765C12.0351 12.6793 11.8675 12.848 11.6654 12.9657C11.4633 13.0833 11.2338 13.1457 11 13.1466C10.6464 13.1466 10.3072 13.2871 10.0572 13.5371C9.80713 13.7872 9.66665 14.1263 9.66665 14.4799C9.66665 14.8336 9.80713 15.1727 10.0572 15.4227C10.3072 15.6728 10.6464 15.8133 11 15.8133C12.0609 15.8133 13.0783 15.3918 13.8284 14.6417C14.5786 13.8916 15 12.8741 15 11.8133C15 10.7524 14.5786 9.73499 13.8284 8.98484C13.0783 8.2347 12.0609 7.81327 11 7.81327V7.81327Z" fill="#F4F4F4"/>
</svg>
