<svg width="72" height="50" viewBox="0 0 72 50" fill="none" xmlns="http://www.w3.org/2000/svg">
<path d="M40.5634 30.6123C40.5634 25.3061 41.3747 20.7483 42.9972 16.9388C44.6197 12.9932 46.7155 9.79593 49.2845 7.34695C51.8535 4.76192 54.7606 2.92518 58.0056 1.83675C61.3859 0.612256 64.6986 1.13123e-05 67.9437 1.18796e-05L67.9437 7.14287C64.4282 7.14287 61.1155 8.36736 58.0056 10.8163C55.031 13.1293 53.2732 16.3265 52.7324 20.4082C53.138 20.2721 53.6113 20.1361 54.1521 20C54.5577 19.8639 55.031 19.7279 55.5718 19.5918C56.2479 19.4558 56.9916 19.3878 57.8028 19.3878C61.8592 19.3878 65.2394 20.9524 67.9437 24.0816C70.6479 27.0748 72 30.6122 72 34.6939C72 38.7755 70.5803 42.381 67.7408 45.5102C65.0366 48.5034 61.3859 50 56.7887 50C51.6507 50 47.662 48.0952 44.8225 44.2857C41.9831 40.3401 40.5634 35.7823 40.5634 30.6123ZM-5.35241e-06 30.6122C-4.42466e-06 25.3061 0.811264 20.7483 2.4338 16.9388C4.05634 12.9932 6.15211 9.79592 8.72113 7.34694C11.2901 4.76191 14.1972 2.92517 17.4423 1.83674C20.8225 0.612249 24.1352 4.21993e-06 27.3803 4.78732e-06L27.3803 7.14287C23.8648 7.14286 20.5521 8.36735 17.4423 10.8163C14.4676 13.1293 12.7099 16.3265 12.169 20.4082C12.5746 20.2721 13.0479 20.1361 13.5887 20C13.9944 19.8639 14.4676 19.7279 15.0084 19.5918C15.6845 19.4558 16.4282 19.3878 17.2394 19.3878C21.2958 19.3878 24.6761 20.9524 27.3803 24.0816C30.0845 27.0748 31.4366 30.6122 31.4366 34.6939C31.4366 38.7755 30.0169 42.3809 27.1775 45.5102C24.4732 48.5034 20.8225 50 16.2253 50C11.0873 50 7.09858 48.0952 4.25915 44.2857C1.41971 40.3401 -6.25638e-06 35.7823 -5.35241e-06 30.6122Z" fill="#558499"/>
</svg>
