<svg width="48" height="48" viewBox="0 0 48 48" fill="none" xmlns="http://www.w3.org/2000/svg">
<rect width="48" height="48" rx="24" fill="#0B4F6C"/>
<path fill-rule="evenodd" clip-rule="evenodd" d="M24 45C35.598 45 45 35.598 45 24C45 12.402 35.598 3 24 3C12.402 3 3 12.402 3 24C3 35.598 12.402 45 24 45ZM36.7174 28.0394C36.8343 28.108 36.9195 28.2205 36.9543 28.3524L37.1077 28.8475C37.1254 28.9132 37.1301 28.9818 37.1215 29.0493C37.1128 29.1169 37.091 29.182 37.0572 29.241C37.0235 29.2999 36.9785 29.3516 36.9248 29.3929C36.8712 29.4343 36.8099 29.4645 36.7447 29.4819L34.9807 29.9563C34.9159 29.9742 34.8552 30.0049 34.8021 30.0464C34.749 30.088 34.7046 30.1397 34.6714 30.1987C34.6381 30.2576 34.6167 30.3225 34.6084 30.3898C34.6001 30.4571 34.605 30.5253 34.6228 30.5907L35.0932 32.37C35.1275 32.502 35.1086 32.6423 35.0405 32.7602C34.9725 32.8781 34.8609 32.9641 34.7302 32.9992L34.2189 33.1333C34.1537 33.1512 34.0857 33.1559 34.0188 33.1471C33.9518 33.1384 33.8873 33.1164 33.8288 33.0823C33.7703 33.0483 33.7191 33.0029 33.6781 32.9488C33.6371 32.8947 33.6072 32.8329 33.59 32.7671L33.002 30.5494C32.9018 30.2399 32.6997 29.9743 32.4294 29.7965L25.2201 25.5984C24.9747 25.454 24.7753 25.5726 24.7753 25.8562V34.2524C24.7932 34.5795 24.9213 34.8906 25.1383 35.1343L26.7438 36.7537C26.7917 36.8016 26.8297 36.8587 26.8557 36.9215C26.8816 36.9844 26.895 37.0518 26.895 37.1199C26.895 37.188 26.8816 37.2554 26.8557 37.3182C26.8297 37.3811 26.7917 37.4381 26.7438 37.486L26.3859 37.8471C26.3383 37.8954 26.2818 37.9338 26.2195 37.9599C26.1572 37.9861 26.0903 37.9996 26.0228 37.9996C25.9553 37.9996 25.8885 37.9861 25.8262 37.9599C25.7639 37.9338 25.7074 37.8954 25.6598 37.8471L24.3714 36.5474C24.3238 36.4991 24.2673 36.4607 24.205 36.4345C24.1427 36.4083 24.0758 36.3949 24.0084 36.3949C23.9409 36.3949 23.874 36.4083 23.8117 36.4345C23.7494 36.4607 23.6929 36.4991 23.6453 36.5474L22.3569 37.8471C22.3093 37.8954 22.2528 37.9338 22.1905 37.9599C22.1282 37.9861 22.0614 37.9996 21.9939 37.9996C21.9264 37.9996 21.8595 37.9861 21.7972 37.9599C21.7349 37.9338 21.6784 37.8954 21.6308 37.8471L21.2729 37.486C21.225 37.4381 21.187 37.3811 21.161 37.3182C21.1351 37.2554 21.1217 37.188 21.1217 37.1199C21.1217 37.0518 21.1351 36.9844 21.161 36.9215C21.187 36.8587 21.225 36.8016 21.2729 36.7537L22.8784 35.1343C23.0954 34.8906 23.2235 34.5795 23.2414 34.2524V25.8562C23.2414 25.5726 23.042 25.454 22.7966 25.5984L15.5874 29.7965C15.317 29.9743 15.1149 30.2399 15.0147 30.5494L14.4267 32.7671C14.4117 32.8342 14.3836 32.8977 14.3439 32.9537C14.3042 33.0097 14.2538 33.0571 14.1957 33.0931C14.1375 33.1292 14.0729 33.1531 14.0054 33.1636C13.9379 33.174 13.8691 33.1707 13.8029 33.1539L13.2916 33.0198C13.1609 32.9847 13.0493 32.8988 12.9813 32.7808C12.9133 32.6629 12.8943 32.5226 12.9286 32.3906L13.399 30.6113C13.4169 30.546 13.4218 30.4777 13.4134 30.4104C13.4051 30.3432 13.3837 30.2782 13.3504 30.2193C13.3172 30.1604 13.2728 30.1086 13.2197 30.0671C13.1666 30.0255 13.1059 29.9949 13.0411 29.977L11.2772 29.5025C11.2119 29.4851 11.1506 29.4549 11.097 29.4136C11.0434 29.3722 10.9984 29.3206 10.9646 29.2616C10.9309 29.2026 10.909 29.1375 10.9004 29.07C10.8917 29.0024 10.8964 28.9338 10.9141 28.8681L11.0471 28.3524C11.0819 28.2205 11.1671 28.108 11.284 28.0394C11.4009 27.9707 11.54 27.9516 11.6708 27.9862L13.8694 28.5793C14.1861 28.6476 14.5165 28.6039 14.8051 28.4555L21.9939 24.2781C22.0468 24.2593 22.0927 24.2244 22.1251 24.1782C22.1575 24.1321 22.175 24.0768 22.175 24.0202C22.175 23.9636 22.1575 23.9084 22.1251 23.8622C22.0927 23.816 22.0468 23.7811 21.9939 23.7624L14.7846 19.5643C14.4961 19.416 14.1657 19.3723 13.849 19.4405L11.6504 20.0336C11.5196 20.0682 11.3804 20.0491 11.2635 19.9805C11.1466 19.9119 11.0614 19.7993 11.0266 19.6674L10.8937 19.1517C10.8759 19.086 10.8712 19.0174 10.8799 18.9499C10.8886 18.8824 10.9104 18.8172 10.9442 18.7582C10.9779 18.6993 11.0229 18.6476 11.0765 18.6063C11.1302 18.5649 11.1914 18.5347 11.2567 18.5174L13.0207 18.0429C13.0855 18.025 13.1462 17.9944 13.1992 17.9528C13.2523 17.9112 13.2968 17.8595 13.33 17.8006C13.3632 17.7416 13.3846 17.6767 13.393 17.6094C13.4013 17.5422 13.3964 17.4739 13.3786 17.4085L12.9082 15.6293C12.8739 15.4973 12.8928 15.3569 12.9608 15.239C13.0289 15.1211 13.1405 15.0352 13.2712 15.0001L13.7825 14.866C13.8486 14.8457 13.9181 14.8391 13.9868 14.8467C14.0556 14.8543 14.122 14.8759 14.1822 14.9101C14.2425 14.9443 14.2952 14.9905 14.3372 15.0458C14.3792 15.1012 14.4097 15.1646 14.4267 15.2321L15.0147 17.4498C15.1149 17.7593 15.317 18.0249 15.5874 18.2028L22.7966 22.4008C23.042 22.5452 23.2414 22.4266 23.2414 22.143V13.7468C23.2235 13.4197 23.0954 13.1086 22.8784 12.8649L21.2729 11.2455C21.225 11.1976 21.187 11.1405 21.161 11.0777C21.1351 11.0148 21.1217 10.9474 21.1217 10.8793C21.1217 10.8113 21.1351 10.7439 21.161 10.681C21.187 10.6182 21.225 10.5611 21.2729 10.5132L21.6308 10.1522C21.6784 10.1038 21.7349 10.0655 21.7972 10.0393C21.8595 10.0131 21.9264 9.99961 21.9939 9.99961C22.0614 9.99961 22.1282 10.0131 22.1905 10.0393C22.2528 10.0655 22.3093 10.1038 22.3569 10.1522L23.6453 11.4518C23.6929 11.5001 23.7494 11.5385 23.8117 11.5647C23.874 11.5909 23.9409 11.6044 24.0084 11.6044C24.0758 11.6044 24.1427 11.5909 24.205 11.5647C24.2673 11.5385 24.3238 11.5001 24.3714 11.4518L25.6598 10.1522C25.7074 10.1038 25.7639 10.0655 25.8262 10.0393C25.8885 10.0131 25.9553 9.99961 26.0228 9.99961C26.0903 9.99961 26.1572 10.0131 26.2195 10.0393C26.2818 10.0655 26.3383 10.1038 26.3859 10.1522L26.7438 10.5132C26.7917 10.5611 26.8297 10.6182 26.8557 10.681C26.8816 10.7439 26.895 10.8113 26.895 10.8793C26.895 10.9474 26.8816 11.0148 26.8557 11.0777C26.8297 11.1405 26.7917 11.1976 26.7438 11.2455L25.1383 12.8649C24.9213 13.1086 24.7932 13.4197 24.7753 13.7468V22.143C24.7753 22.4266 24.9747 22.5452 25.2201 22.4008L32.4242 18.1821C32.6946 18.0043 32.8966 17.7386 32.9969 17.4292L33.5849 15.2115C33.6021 15.1457 33.632 15.0839 33.673 15.0298C33.714 14.9757 33.7652 14.9303 33.8237 14.8963C33.8821 14.8622 33.9467 14.8402 34.0137 14.8314C34.0806 14.8227 34.1486 14.8274 34.2138 14.8453L34.7251 14.9794C34.8558 15.0145 34.9674 15.1005 35.0354 15.2184C35.1035 15.3363 35.1224 15.4766 35.0881 15.6086L34.6177 17.3879C34.5998 17.4533 34.5949 17.5215 34.6033 17.5888C34.6116 17.6561 34.633 17.721 34.6663 17.7799C34.6995 17.8388 34.7439 17.8906 34.797 17.9322C34.8501 17.9737 34.9108 18.0044 34.9756 18.0223L36.7396 18.4967C36.8048 18.5141 36.8661 18.5443 36.9197 18.5856C36.9733 18.627 37.0183 18.6786 37.0521 18.7376C37.0858 18.7966 37.1077 18.8617 37.1163 18.9293C37.125 18.9968 37.1203 19.0654 37.1026 19.1311L36.9696 19.6468C36.9348 19.7787 36.8496 19.8912 36.7327 19.9599C36.6158 20.0285 36.4767 20.0476 36.3459 20.013L34.1473 19.4199C33.8306 19.3516 33.5002 19.3953 33.2116 19.5437L25.9871 23.7417C25.9341 23.7605 25.8883 23.7954 25.8558 23.8416C25.8234 23.8878 25.8059 23.943 25.8059 23.9996C25.8059 24.0562 25.8234 24.1114 25.8558 24.1576C25.8883 24.2038 25.9341 24.2387 25.9871 24.2575L33.2116 28.4555C33.4958 28.6003 33.8201 28.644 34.132 28.5793L36.3305 27.9862C36.4614 27.9516 36.6005 27.9707 36.7174 28.0394Z" fill="white"/>
</svg>
