<svg width="14" height="20" viewBox="0 0 14 20" fill="none" xmlns="http://www.w3.org/2000/svg">
<path d="M11.132 1.18602C8.40203 0.728356 5.60023 0.728356 2.87028 1.18602C1.87293 1.35323 1.07867 2.11889 0.878699 3.11167C-0.0374204 7.65976 -0.0874065 12.3398 0.731363 16.9065L1.06471 18.7657C1.1675 19.339 1.86641 19.5681 2.28867 19.167L6.31238 15.3444C6.69835 14.9778 7.30392 14.9778 7.68988 15.3444L11.7136 19.167C12.1359 19.5681 12.8348 19.339 12.9376 18.7657L13.2709 16.9065C14.0897 12.3398 14.0397 7.65976 13.1236 3.11167C12.9236 2.11889 12.1293 1.35323 11.132 1.18602Z" fill="#558499"/>
</svg>
