<svg width="19" height="21" viewBox="0 0 19 21" fill="none" xmlns="http://www.w3.org/2000/svg">
<path d="M7.99999 2.01758C7.58578 2.01758 7.24999 1.68179 7.24999 1.26758C7.24999 0.853364 7.58578 0.517578 7.99999 0.517578H11.5355C11.9497 0.517578 12.2855 0.853364 12.2855 1.26758C12.2855 1.68179 11.9497 2.01758 11.5355 2.01758H7.99999Z" fill="#008DC5"/>
<path d="M4.53033 2.46948C4.82322 2.76238 4.82322 3.23725 4.53033 3.53014L2.03033 6.03014C1.73744 6.32304 1.26256 6.32304 0.96967 6.03014C0.676777 5.73725 0.676777 5.26238 0.96967 4.96948L3.46967 2.46948C3.76256 2.17659 4.23744 2.17659 4.53033 2.46948Z" fill="#008DC5"/>
<path d="M10 4.74981C5.99594 4.74981 2.75 7.99575 2.75 11.9998C2.75 16.0039 5.99594 19.2498 10 19.2498C14.0041 19.2498 17.25 16.0039 17.25 11.9998C17.25 11.5856 17.5858 11.2498 18 11.2498C18.4142 11.2498 18.75 11.5856 18.75 11.9998C18.75 16.8323 14.8325 20.7498 10 20.7498C5.16751 20.7498 1.25 16.8323 1.25 11.9998C1.25 7.16732 5.16751 3.24981 10 3.24981C10.4142 3.24981 10.75 3.5856 10.75 3.99981C10.75 4.41403 10.4142 4.74981 10 4.74981Z" fill="#008DC5"/>
<path d="M15.1882 7.36407C15.4204 7.0655 15.394 6.64074 15.1265 6.37329C14.8591 6.10583 14.4343 6.07938 14.1357 6.3116L10.9658 8.77708L8.89441 10.2567C8.45194 10.5727 8.18934 11.083 8.18934 11.6268C8.18934 12.5566 8.94316 13.3105 9.87305 13.3105C10.4168 13.3105 10.9271 13.0479 11.2431 12.6054L12.7227 10.534L15.1882 7.36407Z" fill="#008DC5"/>
</svg>
