<svg width="34" height="26" viewBox="0 0 34 26" fill="none" xmlns="http://www.w3.org/2000/svg">
<path fill-rule="evenodd" clip-rule="evenodd" d="M8.64802 1.15092C14.2075 0.715971 19.7924 0.715971 25.3518 1.15092L29.0863 1.44309C31.1665 1.60582 32.8682 3.16482 33.212 5.22277C34.0724 10.3719 34.0724 15.6282 33.212 20.7773C32.8682 22.8353 31.1665 24.3943 29.0863 24.557L25.3518 24.8492C19.7924 25.2841 14.2075 25.2841 8.64802 24.8492L4.91352 24.557C2.83339 24.3943 1.13169 22.8353 0.787836 20.7773C-0.072508 15.6282 -0.072508 10.3719 0.787837 5.22277C1.13169 3.16482 2.83339 1.60582 4.91352 1.44309L8.64802 1.15092ZM13.6665 17.117V8.88315C13.6665 8.4945 14.0905 8.25444 14.4238 8.4544L21.2853 12.5713C21.609 12.7655 21.609 13.2346 21.2853 13.4288L14.4238 17.5457C14.0905 17.7457 13.6665 17.5056 13.6665 17.117Z" fill="#B80C09"/>
</svg>
